<svg width="440" height="140" viewBox="0 0 440 140" fill="none" xmlns="http://www.w3.org/2000/svg">
  <rect width="440" height="140" fill="white"/>
  <g fill="#1A1A1A">
    <rect x="34" y="82" width="15" height="46"/>
    <rect x="49" y="113" width="38" height="15"/>
    <rect x="34" y="44" width="15" height="20"/>
    <rect x="34" y="44" width="53" height="12"/>
  </g>
  <g fill="#FF6A00">
    <rect x="110" y="33" width="66" height="16" rx="1"/>
    <rect x="135" y="33" width="16" height="84" rx="1"/>
    <path d="M204 44C204 36.8203 209.82 31 217 31H252C259.18 31 265 36.8203 265 44V108C265 115.18 259.18 121 252 121H217C209.82 121 204 115.18 204 108V44ZM220 48V104H249V48H220Z"/>
    <rect x="294" y="33" width="16" height="88" rx="1"/>
    <path d="M339 121V33H356L392 84V33H408V121H393L355 69V121H339Z"/>
    <rect x="440" y="33" width="0" height="88"/>
    <rect x="440" y="33" width="0" height="88"/>
    <rect x="430" y="33" width="0" height="88"/>
  </g>
  <g>
    <rect x="425" y="33" width="15" height="15" fill="#8A8A8A"/>
    <rect x="399" y="33" width="24" height="15" fill="#FFB066"/>
    <rect x="399" y="69" width="41" height="15" fill="#FF6A00"/>
    <rect x="399" y="105" width="41" height="15" fill="#FF6A00"/>
  </g>
</svg>
